G04*
G04 #@! TF.GenerationSoftware,Altium Limited,Altium Designer,22.10.1 (41)*
G04*
G04 Layer_Physical_Order=2*
G04 Layer_Color=16711680*
%FSLAX43Y43*%
%MOMM*%
G71*
G04*
G04 #@! TF.SameCoordinates,4B8B264B-0D21-4D13-887F-67EF97DBAFEA*
G04*
G04*
G04 #@! TF.FilePolarity,Positive*
G04*
G01*
G75*
%ADD10C,0.254*%
%ADD11C,0.635*%
%ADD12C,0.889*%
%ADD13C,1.016*%
%ADD14C,0.127*%
%ADD15R,2.127X2.032*%
%ADD16R,3.175X2.540*%
%ADD17R,3.175X2.263*%
%ADD18R,2.540X3.175*%
%ADD19R,2.263X3.175*%
%ADD20R,2.127X1.838*%
%ADD21R,2.127X1.584*%
%ADD22R,2.127X3.035*%
%ADD23R,2.286X3.035*%
%ADD24R,2.159X3.035*%
%ADD25R,2.286X2.540*%
%ADD26R,2.286X2.413*%
%ADD27R,2.286X2.286*%
%ADD28R,21.082X2.286*%
%ADD29R,21.082X2.413*%
%ADD30R,2.286X2.159*%
%ADD31R,4.826X4.191*%
G04:AMPARAMS|DCode=32|XSize=3.304mm|YSize=4.721mm|CornerRadius=0mm|HoleSize=0mm|Usage=FLASHONLY|Rotation=180.860|XOffset=0mm|YOffset=0mm|HoleType=Round|Shape=Rectangle|*
%AMROTATEDRECTD32*
4,1,4,1.616,2.385,1.687,-2.336,-1.616,-2.385,-1.687,2.336,1.616,2.385,0.0*
%
%ADD32ROTATEDRECTD32*%

%ADD33R,1.575X1.575*%
%ADD34C,1.575*%
%ADD35R,1.575X1.575*%
%ADD36R,1.665X1.665*%
%ADD37C,1.665*%
%ADD38C,2.475*%
%ADD39R,1.920X1.920*%
%ADD40C,1.920*%
%ADD41R,1.200X1.200*%
%ADD42C,1.200*%
%ADD43R,1.920X1.920*%
%ADD44C,1.270*%
D10*
X93218Y77216D02*
X151384D01*
X93218Y117729D02*
X151384D01*
Y77216D02*
Y117729D01*
X93218Y77216D02*
Y117729D01*
X150241Y86360D02*
Y85683D01*
X149902Y85344D01*
X149564Y85683D01*
Y86360D01*
X148548Y86190D02*
X148717Y86360D01*
X149056D01*
X149225Y86190D01*
Y85513D01*
X149056Y85344D01*
X148717D01*
X148548Y85513D01*
X147533Y86190D02*
X147702Y86360D01*
X148040D01*
X148210Y86190D01*
Y85513D01*
X148040Y85344D01*
X147702D01*
X147533Y85513D01*
X93917Y107950D02*
X93726Y108141D01*
Y108522D01*
X93917Y108712D01*
X94107D01*
X94298Y108522D01*
Y108141D01*
X94488Y107950D01*
X94679D01*
X94869Y108141D01*
Y108522D01*
X94679Y108712D01*
X93917Y106808D02*
X93726Y106998D01*
Y107379D01*
X93917Y107569D01*
X94679D01*
X94869Y107379D01*
Y106998D01*
X94679Y106808D01*
X93726Y106427D02*
Y105665D01*
Y106046D01*
X94869D01*
Y105284D02*
X94107Y104522D01*
X94869Y104141D02*
Y103761D01*
Y103951D01*
X93726D01*
X93917Y104141D01*
X94679Y103189D02*
X94869Y102999D01*
Y102618D01*
X94679Y102428D01*
X93917D01*
X93726Y102618D01*
Y102999D01*
X93917Y103189D01*
X94107D01*
X94298Y102999D01*
Y102428D01*
X94869Y102047D02*
X94107Y101285D01*
X93917Y100904D02*
X93726Y100714D01*
Y100333D01*
X93917Y100142D01*
X94679D01*
X94869Y100333D01*
Y100714D01*
X94679Y100904D01*
X93917D01*
X94869Y99190D02*
X93726D01*
X94298Y99761D01*
Y99000D01*
X93726Y98619D02*
Y97857D01*
X93917D01*
X94679Y98619D01*
X94869D01*
X105664Y115570D02*
Y117094D01*
X104902D01*
X104648Y116840D01*
Y116332D01*
X104902Y116078D01*
X105664D01*
X105156D02*
X104648Y115570D01*
X103379D02*
X103887D01*
X104140Y115824D01*
Y116332D01*
X103887Y116586D01*
X103379D01*
X103125Y116332D01*
Y116078D01*
X104140D01*
X101601Y116586D02*
X102363D01*
X102617Y116332D01*
Y115824D01*
X102363Y115570D01*
X101601D01*
X100332D02*
X100840D01*
X101093Y115824D01*
Y116332D01*
X100840Y116586D01*
X100332D01*
X100078Y116332D01*
Y116078D01*
X101093D01*
X99570Y115570D02*
X99062D01*
X99316D01*
Y116586D01*
X99570D01*
X98300D02*
X97793Y115570D01*
X97285Y116586D01*
X96015Y115570D02*
X96523D01*
X96777Y115824D01*
Y116332D01*
X96523Y116586D01*
X96015D01*
X95761Y116332D01*
Y116078D01*
X96777D01*
X95253Y116586D02*
Y115570D01*
Y116078D01*
X94999Y116332D01*
X94746Y116586D01*
X94492D01*
X149352Y110998D02*
X149098Y110744D01*
Y110236D01*
X149352Y109982D01*
X149606D01*
X149860Y110236D01*
X150114Y109982D01*
X150368D01*
X150622Y110236D01*
Y110744D01*
X150368Y110998D01*
X150114D01*
X149860Y110744D01*
X149606Y110998D01*
X149352D01*
X149860Y110744D02*
Y110236D01*
X149352Y106935D02*
X149098Y107189D01*
Y107697D01*
X149352Y107951D01*
X150368D01*
X150622Y107697D01*
Y107189D01*
X150368Y106935D01*
X149098Y106427D02*
X150622D01*
X149860D01*
X149606Y106174D01*
Y105666D01*
X149860Y105412D01*
X150622D01*
X149606Y104650D02*
Y104142D01*
X149860Y103888D01*
X150622D01*
Y104650D01*
X150368Y104904D01*
X150114Y104650D01*
Y103888D01*
X150622Y103380D02*
X149606D01*
Y102619D01*
X149860Y102365D01*
X150622D01*
Y101857D02*
X149606D01*
Y101095D01*
X149860Y100841D01*
X150622D01*
Y99572D02*
Y100080D01*
X150368Y100333D01*
X149860D01*
X149606Y100080D01*
Y99572D01*
X149860Y99318D01*
X150114D01*
Y100333D01*
X150622Y98810D02*
Y98302D01*
Y98556D01*
X149098D01*
Y98810D01*
X149945Y94826D02*
X150114Y94996D01*
X150453D01*
X150622Y94826D01*
Y94149D01*
X150453Y93980D01*
X150114D01*
X149945Y94149D01*
Y94488D01*
X150283D01*
X149606Y93980D02*
Y94996D01*
X148929Y93980D01*
Y94996D01*
X148591D02*
Y93980D01*
X148083D01*
X147914Y94149D01*
Y94826D01*
X148083Y94996D01*
X148591D01*
X115697Y81026D02*
X114935D01*
Y81534D01*
X115697Y82296D02*
Y81788D01*
X114935D01*
Y82296D01*
X115316Y81788D02*
Y82042D01*
X115697Y82550D02*
X114935D01*
Y82931D01*
X115062Y83058D01*
X115570D01*
X115697Y82931D01*
Y82550D01*
X114935Y83820D02*
Y83312D01*
X115443Y83820D01*
X115570D01*
X115697Y83693D01*
Y83439D01*
X115570Y83312D01*
X124714Y80899D02*
X123952D01*
Y81407D01*
X124714Y82169D02*
Y81661D01*
X123952D01*
Y82169D01*
X124333Y81661D02*
Y81915D01*
X124714Y82423D02*
X123952D01*
Y82804D01*
X124079Y82931D01*
X124587D01*
X124714Y82804D01*
Y82423D01*
X123952Y83185D02*
Y83439D01*
Y83312D01*
X124714D01*
X124587Y83185D01*
X95123Y78169D02*
X95250Y78296D01*
Y78550D01*
X95123Y78677D01*
X94996D01*
X94869Y78550D01*
Y78423D01*
Y78550D01*
X94742Y78677D01*
X94615D01*
X94488Y78550D01*
Y78296D01*
X94615Y78169D01*
X94488Y78931D02*
X94615D01*
Y79058D01*
X94488D01*
Y78931D01*
X95123Y79565D02*
X95250Y79692D01*
Y79946D01*
X95123Y80073D01*
X94996D01*
X94869Y79946D01*
Y79819D01*
Y79946D01*
X94742Y80073D01*
X94615D01*
X94488Y79946D01*
Y79692D01*
X94615Y79565D01*
X95250Y80327D02*
X94742D01*
X94488Y80581D01*
X94742Y80835D01*
X95250D01*
X129074Y85725D02*
X129751D01*
Y85217D01*
X129413Y85386D01*
X129243D01*
X129074Y85217D01*
Y84878D01*
X129243Y84709D01*
X129582D01*
X129751Y84878D01*
X128736Y85725D02*
Y85048D01*
X128397Y84709D01*
X128058Y85048D01*
Y85725D01*
D11*
X103759Y105156D02*
X106680Y108077D01*
X99187Y97019D02*
Y104784D01*
X99559Y105156D01*
X103759D01*
X106562Y108966D02*
X106934Y109338D01*
Y110744D01*
X102743Y108966D02*
X106562D01*
X100711Y106934D02*
X102743Y108966D01*
X106680Y108077D02*
X108458D01*
X109385Y109004D01*
X110490Y107061D02*
X112014Y108585D01*
X105537Y105537D02*
X107061Y107061D01*
X110490D01*
X110617Y104911D02*
X110989Y105283D01*
X110617Y103124D02*
Y104911D01*
X112522Y105283D02*
X114427Y107188D01*
X111633Y106172D02*
X113792Y108331D01*
X108077Y105664D02*
X108585Y106172D01*
X110989Y105283D02*
X112522D01*
X108585Y106172D02*
X111633D01*
X101459Y98361D02*
X110680D01*
X100770Y98992D02*
X100829D01*
X101459Y98361D01*
X113157Y100838D02*
Y103124D01*
X110680Y98361D02*
X113157Y100838D01*
X99559Y96647D02*
X104521D01*
X99187Y97019D02*
X99559Y96647D01*
X104521D02*
X105537Y95631D01*
X109385Y109004D02*
Y110655D01*
X109474Y110744D01*
X105537Y87884D02*
Y95631D01*
X116091Y108331D02*
X117094Y109334D01*
X113792Y108331D02*
X116091D01*
X117094Y109334D02*
Y114554D01*
X114427Y107188D02*
X116713D01*
X118364Y108839D02*
Y115062D01*
X116713Y107188D02*
X118364Y108839D01*
X106934Y115443D02*
X108204Y116713D01*
X106934Y113284D02*
Y115443D01*
X108204Y116713D02*
X116713D01*
X118364Y115062D01*
X115697Y103124D02*
Y104521D01*
X118618Y107442D01*
X120777D01*
X109474Y113284D02*
X109554Y113364D01*
Y115024D01*
X110354Y115824D01*
X115824D01*
X117094Y114554D01*
X112014Y108585D02*
Y110744D01*
X108077Y103124D02*
Y105664D01*
X105537Y103124D02*
Y105537D01*
X124206Y108068D02*
Y110744D01*
X123834Y107696D02*
X124206Y108068D01*
X122568Y107696D02*
X123834D01*
X121298Y106426D02*
X122568Y107696D01*
X124587Y106553D02*
X126873Y108839D01*
X123063Y106553D02*
X124587D01*
X120833Y104323D02*
X123063Y106553D01*
X123317Y104775D02*
X123952Y105410D01*
X125095D02*
X129158Y109473D01*
X123952Y105410D02*
X125095D01*
X129158Y110362D02*
X129540Y110744D01*
X129158Y109473D02*
Y110362D01*
X129159Y107569D02*
X131835D01*
X132207Y107941D01*
X125913Y104323D02*
X129159Y107569D01*
X132207Y107941D02*
Y110744D01*
X128397Y104775D02*
X130302Y106680D01*
X134502D01*
X134874Y107052D01*
Y110744D01*
X135763Y105664D02*
X137541Y107442D01*
X131445Y105664D02*
X135763D01*
X130937Y105156D02*
X131445Y105664D01*
X137541Y107442D02*
Y110744D01*
X140208Y108331D02*
Y110744D01*
X138557Y106680D02*
X140208Y108331D01*
X138557Y103124D02*
Y106680D01*
X130937Y103124D02*
Y105156D01*
X128397Y103124D02*
Y104775D01*
X125913Y103180D02*
Y104323D01*
X125857Y103124D02*
X125913Y103180D01*
X126873Y108839D02*
Y110744D01*
X123317Y103124D02*
Y104775D01*
X121437Y108102D02*
Y110642D01*
X120777Y107442D02*
X121437Y108102D01*
X120833Y103180D02*
Y104323D01*
X120777Y103124D02*
X120833Y103180D01*
X119253Y106426D02*
X121298D01*
X118237Y105410D02*
X119253Y106426D01*
X118237Y103124D02*
Y105410D01*
X133219Y93726D02*
Y95081D01*
X132542Y95758D01*
X131865Y95081D01*
Y93726D01*
Y94742D01*
X133219D01*
X131188Y95081D02*
Y93726D01*
Y94403D01*
X130849Y94742D01*
X130510Y95081D01*
X130172D01*
X127802Y95758D02*
Y93726D01*
X128818D01*
X129156Y94065D01*
Y94742D01*
X128818Y95081D01*
X127802D01*
X127125D02*
Y94065D01*
X126786Y93726D01*
X125771D01*
Y95081D01*
X125094Y93726D02*
X124416D01*
X124755D01*
Y95081D01*
X125094D01*
X123401Y93726D02*
Y95081D01*
X122385D01*
X122047Y94742D01*
Y93726D01*
X121031D02*
X120354D01*
X120015Y94065D01*
Y94742D01*
X120354Y95081D01*
X121031D01*
X121369Y94742D01*
Y94065D01*
X121031Y93726D01*
X117307D02*
Y95758D01*
X115952Y93726D01*
Y95758D01*
X114937Y95081D02*
X114260D01*
X113921Y94742D01*
Y93726D01*
X114937D01*
X115275Y94065D01*
X114937Y94403D01*
X113921D01*
X113244Y93726D02*
Y95081D01*
X112228D01*
X111890Y94742D01*
Y93726D01*
X110874D02*
X110197D01*
X109858Y94065D01*
Y94742D01*
X110197Y95081D01*
X110874D01*
X111213Y94742D01*
Y94065D01*
X110874Y93726D01*
D12*
X138506Y84328D02*
X139027Y83807D01*
Y81572D02*
Y83807D01*
X134266Y84328D02*
X138506D01*
X141859Y80065D02*
X143946D01*
X140534D02*
X141859D01*
X119380Y80150D02*
Y81280D01*
Y80010D02*
Y80150D01*
X98552Y86995D02*
X99314Y86233D01*
X103251Y80137D02*
X105029D01*
X101727D02*
X103251D01*
X136271Y79756D02*
X137922Y78105D01*
X145669D02*
X146304Y78740D01*
X137922Y78105D02*
X145669D01*
X112776Y82334D02*
X112970Y82139D01*
X112268Y85344D02*
X112776Y84836D01*
Y82334D02*
Y84836D01*
X112970Y81340D02*
Y82139D01*
X112331Y85408D02*
X115013D01*
X110490Y79896D02*
X111011Y79375D01*
X118745D02*
X119380Y80010D01*
X110490Y79896D02*
Y81280D01*
X111011Y79375D02*
X118745D01*
X101410Y78041D02*
X134557D01*
X96774Y82677D02*
X101410Y78041D01*
X134557D02*
X136271Y79756D01*
X133731Y79896D02*
Y81915D01*
X133210Y79375D02*
X133731Y79896D01*
X119380Y80150D02*
X120155Y79375D01*
X133210D01*
X133745Y81929D02*
Y83807D01*
X134266Y84328D01*
X131191Y83566D02*
X133096Y85471D01*
X141605D01*
X139027Y81572D02*
X140534Y80065D01*
X141605Y85471D02*
X141859Y85217D01*
Y82565D02*
Y85217D01*
X141097Y85979D02*
X141605Y85471D01*
X97409Y107442D02*
X100711Y110744D01*
X97409Y94996D02*
X99060Y93345D01*
X97409Y94996D02*
Y107442D01*
X100711Y110744D02*
X104394D01*
X99060Y92329D02*
Y93345D01*
X96577Y89732D02*
Y91129D01*
X95885Y91821D02*
Y110744D01*
Y91821D02*
X96577Y91129D01*
X95885Y110744D02*
X98425Y113284D01*
X96577Y89732D02*
X96774Y89535D01*
X112970Y81340D02*
X113030Y81280D01*
X115111Y85549D02*
X115697Y86135D01*
X112268Y85344D02*
X112331Y85408D01*
X115013D02*
X115111Y85506D01*
Y85549D01*
X123190Y85114D02*
Y85217D01*
X123000Y82360D02*
Y84924D01*
X123190Y85114D01*
X121920Y81280D02*
X123000Y82360D01*
X123087Y85217D02*
X123190D01*
X119253Y85344D02*
X122960D01*
X123087Y85217D01*
X118385Y86315D02*
Y87736D01*
Y86315D02*
X119253Y85447D01*
Y85344D02*
Y85447D01*
X118237Y87884D02*
X118385Y87736D01*
X96774Y86995D02*
X98552D01*
X99314Y82550D02*
Y86233D01*
X106172Y81280D02*
X110490D01*
X105029Y80137D02*
X106172Y81280D01*
X136271Y79756D02*
Y81915D01*
X146304Y78740D02*
X147955Y80391D01*
X143891Y115824D02*
X148082Y111633D01*
X140208Y115824D02*
X143891D01*
X148082Y97663D02*
Y111633D01*
X140208Y113284D02*
X144018D01*
X146304Y98933D02*
Y110998D01*
X144018Y113284D02*
X146304Y110998D01*
X98425Y113284D02*
X104394D01*
X96774Y89535D02*
X99441D01*
X100965Y83158D02*
Y88011D01*
X99441Y89535D02*
X100965Y88011D01*
Y83158D02*
X101486Y82637D01*
X103251D01*
X99314Y82550D02*
X101727Y80137D01*
X96774Y82677D02*
Y84455D01*
X121437Y110642D02*
X121539Y110744D01*
X115697Y86135D02*
Y87884D01*
X131191Y81915D02*
Y83566D01*
X141097Y85979D02*
Y87884D01*
X145798Y81917D02*
Y95379D01*
X143946Y80065D02*
X145798Y81917D01*
X138557Y87884D02*
Y90170D01*
X143766Y95379D01*
X145798D02*
X148082Y97663D01*
X143766Y95379D02*
X145798D01*
X144907Y97536D02*
X146304Y98933D01*
X133477Y90805D02*
X140208Y97536D01*
X144907D01*
X133477Y87884D02*
Y90805D01*
D13*
X121539Y115824D02*
X124206D01*
X126873D01*
X129540D01*
X132207D01*
X134874D01*
X137541D01*
X140208D01*
X126873Y113284D02*
X129540D01*
X124206D02*
X126873D01*
X129540D02*
X132207D01*
X121539D02*
X124206D01*
X132207D02*
X134874D01*
X137541D01*
X140208D01*
D14*
X102150Y114427D02*
Y114935D01*
X101812Y114427D01*
Y114935D01*
X101642Y114427D02*
Y114935D01*
X101388D01*
X101304Y114850D01*
Y114681D01*
X101388Y114596D01*
X101642D01*
X101473D02*
X101304Y114427D01*
X100796Y114935D02*
X101134D01*
Y114681D01*
X100965D01*
X101134D01*
Y114427D01*
D15*
X100671Y106987D02*
D03*
X100925Y98859D02*
D03*
X141916Y80167D02*
D03*
Y82707D02*
D03*
X121967Y81280D02*
D03*
X119407Y81220D02*
D03*
X99087Y86808D02*
D03*
X98960Y92269D02*
D03*
X103278Y82617D02*
D03*
Y80077D02*
D03*
X110517Y81347D02*
D03*
X113077Y81407D02*
D03*
D16*
X96711Y84201D02*
D03*
X96777Y89558D02*
D03*
D17*
Y86879D02*
D03*
D18*
X136421Y82039D02*
D03*
X131064Y82105D02*
D03*
D19*
X133742Y82039D02*
D03*
D20*
X123090Y85187D02*
D03*
X119280D02*
D03*
X112295D02*
D03*
D21*
X115216Y85314D02*
D03*
D22*
X105584Y88004D02*
D03*
D23*
X108045D02*
D03*
X110585D02*
D03*
X113125D02*
D03*
X120745D02*
D03*
X118205D02*
D03*
X115665D02*
D03*
X133445D02*
D03*
X135985D02*
D03*
X138525D02*
D03*
X130905D02*
D03*
X128365D02*
D03*
X125825D02*
D03*
X123285D02*
D03*
X123412Y102990D02*
D03*
X125952D02*
D03*
X128492D02*
D03*
X131032D02*
D03*
X138652D02*
D03*
X136112D02*
D03*
X133572D02*
D03*
X113252D02*
D03*
X115792D02*
D03*
X118332D02*
D03*
X120872D02*
D03*
X113252D02*
D03*
X110712D02*
D03*
X108172D02*
D03*
X105632D02*
D03*
D24*
X141033Y88032D02*
D03*
D25*
X132334Y110490D02*
D03*
X135001D02*
D03*
X140335D02*
D03*
X137668D02*
D03*
X126873D02*
D03*
X129540D02*
D03*
X124206D02*
D03*
X121539D02*
D03*
D26*
X132334Y113220D02*
D03*
X135001D02*
D03*
X140335D02*
D03*
X137668D02*
D03*
X126873D02*
D03*
X129540D02*
D03*
X124206D02*
D03*
D27*
X132334Y115951D02*
D03*
X135001D02*
D03*
X137668D02*
D03*
X126873D02*
D03*
X129540D02*
D03*
X124206D02*
D03*
X121539D02*
D03*
D28*
X130937D02*
D03*
D29*
Y113220D02*
D03*
D30*
X104394Y110680D02*
D03*
X106934D02*
D03*
X112014D02*
D03*
X109474D02*
D03*
Y113348D02*
D03*
X112014D02*
D03*
X106934D02*
D03*
X104394D02*
D03*
D31*
X148209Y91377D02*
D03*
D32*
X148809Y82395D02*
D03*
D33*
X104394Y110744D02*
D03*
D34*
Y113284D02*
D03*
X106934Y110744D02*
D03*
Y113284D02*
D03*
X109474Y110744D02*
D03*
Y113284D02*
D03*
X112014Y110744D02*
D03*
Y113284D02*
D03*
X114554Y110744D02*
D03*
Y113284D02*
D03*
X129540Y118364D02*
D03*
Y115824D02*
D03*
Y113284D02*
D03*
X134874D02*
D03*
Y115824D02*
D03*
Y118364D02*
D03*
X132207Y113284D02*
D03*
Y115824D02*
D03*
Y118364D02*
D03*
X137541Y113284D02*
D03*
Y115824D02*
D03*
Y118364D02*
D03*
X140208Y113284D02*
D03*
Y115824D02*
D03*
Y118364D02*
D03*
X126873Y113284D02*
D03*
Y115824D02*
D03*
Y118364D02*
D03*
X124206Y113284D02*
D03*
Y115824D02*
D03*
Y118364D02*
D03*
X121539Y113284D02*
D03*
Y115824D02*
D03*
Y118364D02*
D03*
D35*
X129540Y110744D02*
D03*
X134874D02*
D03*
X132207D02*
D03*
X137541D02*
D03*
X140208D02*
D03*
X126873D02*
D03*
X124206D02*
D03*
X121539D02*
D03*
D36*
X105537Y87884D02*
D03*
X141097Y103124D02*
D03*
D37*
X108077Y87884D02*
D03*
X110617D02*
D03*
X113157D02*
D03*
X115697D02*
D03*
X118237D02*
D03*
X120777D02*
D03*
X123317D02*
D03*
X125857D02*
D03*
X128397D02*
D03*
X130937D02*
D03*
X133477D02*
D03*
X136017D02*
D03*
X138557D02*
D03*
X141097D02*
D03*
X138557Y103124D02*
D03*
X136017D02*
D03*
X133477D02*
D03*
X130937D02*
D03*
X128397D02*
D03*
X125857D02*
D03*
X123317D02*
D03*
X120777D02*
D03*
X118237D02*
D03*
X115697D02*
D03*
X113157D02*
D03*
X110617D02*
D03*
X108077D02*
D03*
X105537D02*
D03*
D38*
X102997Y87884D02*
D03*
Y103124D02*
D03*
X143637D02*
D03*
Y87884D02*
D03*
D39*
X96774Y84455D02*
D03*
D40*
Y86995D02*
D03*
Y89535D02*
D03*
X133731Y81915D02*
D03*
X131191D02*
D03*
D41*
X103251Y80137D02*
D03*
X141859Y80065D02*
D03*
D42*
X103251Y82637D02*
D03*
X119380Y81280D02*
D03*
X121920D02*
D03*
X110490D02*
D03*
X113030D02*
D03*
X141859Y82565D02*
D03*
D43*
X136271Y81915D02*
D03*
D44*
X148844Y82296D02*
D03*
X148463Y91440D02*
D03*
X100711Y106934D02*
D03*
X100770Y98992D02*
D03*
X99060Y92329D02*
D03*
Y86868D02*
D03*
X112268Y85344D02*
D03*
X115189Y85471D02*
D03*
X123190Y85217D02*
D03*
X119253Y85344D02*
D03*
M02*
